<?xml version="1.0" encoding="UTF-8"?><svg id="Layer_2" xmlns="http://www.w3.org/2000/svg" viewBox="0 0 868.22 143.39"><defs><style>.cls-1{font-family:Aeonik-Light, Aeonik;font-size:135.79px;font-weight:300;}.cls-1,.cls-2{fill:#fff;}.cls-3{letter-spacing:0em;}.cls-4{letter-spacing:0em;}.cls-5{letter-spacing:0em;}.cls-6{letter-spacing:0em;}.cls-7{letter-spacing:0em;}.cls-8{letter-spacing:0em;}.cls-9{letter-spacing:0em;}.cls-10{letter-spacing:0em;}.cls-11{letter-spacing:0em;}</style></defs><g id="Layer_1-2"><text class="cls-1" transform="translate(281.07 115.42)"><tspan class="cls-7" x="0" y="0">e</tspan><tspan class="cls-3" x="73.61" y="0">d</tspan><tspan class="cls-8" x="153.26" y="0">u</tspan><tspan class="cls-5" x="226.01" y="0">c</tspan><tspan class="cls-11" x="297.63" y="0">a</tspan><tspan class="cls-4" x="378.42" y="0">t</tspan><tspan class="cls-6" x="413.91" y="0">i</tspan><tspan class="cls-9" x="436.06" y="0">o</tspan><tspan class="cls-10" x="512.87" y="0">n</tspan></text><g id="Layer_1-3"><path class="cls-2" d="M53.4,45.2h15.86v68.12h-15.86v-7.12c-6.96,8.09-15.53,9.22-20.39,9.22C11.98,115.42,0,97.95,0,79.18c0-22.17,15.21-35.76,33.17-35.76,5.02,0,13.75,1.29,20.22,9.71v-7.93h.01ZM16.19,79.5c0,11.81,7.44,21.68,18.93,21.68,10.03,0,19.25-7.28,19.25-21.52s-9.22-22-19.25-22c-11.49,0-18.93,9.71-18.93,21.84ZM88.14,45.2h15.86v6.15c1.78-2.1,4.37-4.37,6.63-5.66,3.07-1.78,6.15-2.27,9.71-2.27,3.88,0,8.09.65,12.46,3.24l-6.47,14.4c-3.56-2.27-6.47-2.43-8.09-2.43-3.4,0-6.8.48-9.87,3.72-4.37,4.69-4.37,11.16-4.37,15.69v35.27h-15.86V45.19h0ZM143.04,45.2h15.86v6.31c5.34-6.47,11.65-8.09,16.83-8.09,7.12,0,13.75,3.4,17.64,10.03,5.66-8.09,14.24-10.03,20.22-10.03,8.25,0,15.53,3.88,19.42,10.68,1.29,2.27,3.56,7.28,3.56,17.15v42.07h-15.86v-37.54c0-7.6-.81-10.68-1.46-12.13-.97-2.59-3.4-5.99-9.06-5.99-3.88,0-7.28,2.1-9.38,5.02-2.75,3.88-3.07,9.71-3.07,15.53v35.11h-15.86v-37.54c0-7.6-.81-10.68-1.46-12.13-.97-2.59-3.4-5.99-9.06-5.99-3.88,0-7.28,2.1-9.38,5.02-2.75,3.88-3.07,9.71-3.07,15.53v35.11h-15.86V45.2h-.01Z"/></g></g></svg>
